<svg enable-background="new 0 0 500 97" viewBox="0 0 500 97" xmlns="http://www.w3.org/2000/svg"><g fill="#fff"><path d="m122.5 53.1v-34.1h4.5v14h17.7v-14h4.5v34.1h-4.5v-16.1h-17.7v16.1z"/><path d="m155.5 40.7c0-4.6 1.3-8 3.8-10.2 2.1-1.8 4.7-2.7 7.8-2.7 3.4 0 6.2 1.1 8.3 3.3 2.2 2.2 3.2 5.3 3.2 9.2 0 3.2-.5 5.7-1.4 7.5-1 1.8-2.3 3.2-4.2 4.2-1.8 1-3.8 1.5-6 1.5-3.5 0-6.2-1.1-8.4-3.3-2-2.1-3.1-5.3-3.1-9.5zm4.3 0c0 3.2.7 5.5 2.1 7.1s3.1 2.4 5.2 2.4 3.8-.8 5.2-2.4 2.1-4 2.1-7.2c0-3.1-.7-5.4-2.1-6.9-1.4-1.6-3.1-2.4-5.2-2.4s-3.8.8-5.2 2.3c-1.4 1.6-2.1 3.9-2.1 7.1zm.8-17.2v-4.8h4.4v4.8zm8.6 0v-4.8h4.4v4.8z"/><path d="m184.4 53.1v-24.7h3.8v3.7c1-1.8 1.8-2.9 2.7-3.5.8-.6 1.7-.8 2.7-.8 1.4 0 2.8.4 4.3 1.3l-1.4 3.9c-1-.6-2-.9-3.1-.9-.9 0-1.7.3-2.5.8-.7.6-1.2 1.3-1.6 2.3-.5 1.5-.7 3.1-.7 4.9v12.9z"/><path d="m220.6 45.1 4.3.5c-.7 2.5-1.9 4.5-3.8 5.9-1.8 1.4-4.2 2.1-7.1 2.1-3.6 0-6.5-1.1-8.6-3.3s-3.2-5.3-3.2-9.4c0-4.2 1.1-7.4 3.2-9.7s4.9-3.4 8.3-3.4c3.3 0 6 1.1 8.1 3.4 2.1 2.2 3.1 5.4 3.1 9.5v1.1h-18.4c.2 2.7.9 4.8 2.3 6.2s3.1 2.2 5.2 2.2c1.5 0 2.8-.4 3.9-1.2 1.2-.8 2-2.1 2.7-3.9zm-13.8-6.8h13.8c-.2-2.1-.7-3.6-1.6-4.7-1.3-1.6-3.1-2.4-5.2-2.4-1.9 0-3.5.6-4.8 1.9-1.3 1.4-2 3.1-2.2 5.2z"/><path d="m231.1 53.1v-24.7h3.8v3.5c1.8-2.7 4.4-4.1 7.8-4.1 1.5 0 2.9.3 4.1.8s2.2 1.2 2.8 2.1 1.1 1.9 1.3 3.1c.2.8.2 2.1.2 4.1v15.2h-4.2v-15.1c0-1.7-.2-3-.5-3.8s-.9-1.5-1.7-2-1.8-.8-2.9-.8c-1.8 0-3.3.6-4.6 1.7s-1.9 3.3-1.9 6.4v13.5z"/><path d="m270.9 53.1v-34.4h4.2v12.3c2-2.3 4.5-3.4 7.5-3.4 1.8 0 3.4.4 4.8 1.1s2.3 1.7 2.9 3 .9 3.1.9 5.6v15.8h-4.2v-15.8c0-2.1-.5-3.6-1.4-4.6s-2.2-1.4-3.9-1.4c-1.2 0-2.4.3-3.5 1s-1.9 1.5-2.4 2.6-.7 2.6-.7 4.6v13.6z"/><path d="m315.5 45.1 4.4.5c-.7 2.5-2 4.5-3.8 5.9s-4.2 2.1-7.1 2.1c-3.6 0-6.5-1.1-8.7-3.4-2.1-2.2-3.2-5.4-3.2-9.4 0-4.2 1.1-7.4 3.2-9.8s5-3.5 8.4-3.5c3.3 0 6 1.1 8.2 3.4s3.2 5.5 3.2 9.6v1.1h-18.6c.2 2.7.9 4.8 2.3 6.3s3.1 2.2 5.2 2.2c1.5 0 2.9-.4 4-1.2 1-.7 1.9-2 2.5-3.8zm-13.8-6.8h13.9c-.2-2.1-.7-3.7-1.6-4.7-1.3-1.6-3.1-2.4-5.2-2.4-1.9 0-3.6.6-4.9 1.9s-2.1 3-2.2 5.2z"/><path d="m342.4 53.1v-3.7c-1.9 2.8-4.6 4.2-7.9 4.2-1.5 0-2.8-.3-4.1-.8s-2.2-1.3-2.8-2.1-1.1-1.9-1.3-3.1c-.2-.8-.3-2.1-.3-3.9v-15.5h4.2v13.8c0 2.2.1 3.7.3 4.5.3 1.1.8 2 1.7 2.6s1.9.9 3.2.9 2.5-.3 3.6-1c1.1-.6 1.9-1.5 2.4-2.6s.7-2.7.7-4.9v-13.3h4.2v24.9z"/><path d="m363.5 49.3.6 3.7c-1.2.2-2.2.4-3.2.4-1.5 0-2.7-.2-3.6-.7s-1.4-1.1-1.8-1.9-.5-2.4-.5-5v-14.3h-3v-3.3h3.1v-6.2l4.2-2.5v8.7h4.2v3.3h-4.2v14.6c0 1.2.1 2 .2 2.3s.4.6.7.8.8.3 1.4.3c.5 0 1.1-.1 1.9-.2z"/><path d="m387.9 45.1 4.4.5c-.7 2.5-2 4.5-3.8 5.9s-4.2 2.1-7.1 2.1c-3.6 0-6.5-1.1-8.7-3.4-2.1-2.2-3.2-5.4-3.2-9.4 0-4.2 1.1-7.4 3.2-9.8s5-3.5 8.4-3.5c3.3 0 6 1.1 8.2 3.4s3.2 5.5 3.2 9.6v1.1h-18.6c.2 2.7.9 4.8 2.3 6.3s3.1 2.2 5.2 2.2c1.5 0 2.9-.4 4-1.2 1-.7 1.9-2 2.5-3.8zm-13.8-6.8h13.9c-.2-2.1-.7-3.7-1.6-4.7-1.3-1.6-3.1-2.4-5.2-2.4-1.9 0-3.6.6-4.9 1.9s-2.1 3-2.2 5.2z"/><path d="m122.5 79.9v-18.7h2.5v18.8z"/><path d="m130 79.9v-13.6h2.1v1.9c1-1.5 2.4-2.2 4.3-2.2.8 0 1.6.1 2.3.4s1.2.7 1.5 1.2.6 1 .7 1.7c.1.4.1 1.2.1 2.2v8.4h-2.2v-8.3c0-.9-.1-1.6-.3-2.1s-.5-.8-1-1.1-1-.4-1.6-.4c-1 0-1.8.3-2.5.9s-1.1 1.8-1.1 3.5v7.4z"/><path d="m146.1 79.9v-11.8h-2v-1.8h2v-1.4c0-.9.1-1.6.2-2 .2-.6.6-1.1 1.2-1.5s1.3-.6 2.3-.6c.6 0 1.4.1 2.1.2l-.3 2c-.5-.1-.9-.1-1.4-.1-.7 0-1.2.1-1.5.4s-.4.9-.4 1.7v1.3h2.6v1.8h-2.6v11.8z"/><path d="m153 73.1c0-2.5.7-4.4 2.1-5.6 1.2-1 2.6-1.5 4.3-1.5 1.9 0 3.4.6 4.6 1.8s1.8 2.9 1.8 5.1c0 1.8-.3 3.1-.8 4.1s-1.3 1.8-2.3 2.3c-1 .6-2.1.8-3.3.8-1.9 0-3.4-.6-4.6-1.8-1.2-1.1-1.8-2.9-1.8-5.2zm2.3 0c0 1.7.4 3 1.1 3.9.8.9 1.7 1.3 2.9 1.3 1.1 0 2.1-.4 2.9-1.3s1.1-2.2 1.1-4c0-1.7-.4-3-1.1-3.8-.8-.9-1.7-1.3-2.8-1.3-1.2 0-2.1.4-2.9 1.3s-1.2 2.2-1.2 3.9z"/><path d="m169.3 79.9v-13.6h2.1v2.1c.5-1 1-1.6 1.5-1.9.4-.3.9-.5 1.5-.5.8 0 1.6.2 2.4.7l-.8 2.1c-.6-.3-1.1-.5-1.7-.5-.5 0-1 .2-1.4.5s-.7.7-.9 1.3c-.3.8-.4 1.7-.4 2.7v7.1z"/><path d="m179.1 79.9v-13.6h2.1v1.9c.4-.7 1-1.2 1.7-1.6s1.5-.6 2.4-.6c1 0 1.8.2 2.5.6.6.4 1.1 1 1.4 1.8 1.1-1.6 2.5-2.4 4.2-2.4 1.3 0 2.4.4 3.1 1.1s1.1 1.9 1.1 3.5v9.3h-2.3v-8.6c0-.9-.1-1.6-.2-2s-.4-.7-.8-1c-.4-.2-.9-.4-1.4-.4-1 0-1.7.3-2.4 1-.6.6-.9 1.7-.9 3.1v7.9h-2.3v-8.8c0-1-.2-1.8-.6-2.3s-1-.8-1.8-.8c-.6 0-1.2.2-1.8.5-.5.3-.9.8-1.2 1.5-.2.7-.4 1.6-.4 2.8v7.1z"/><path d="m210.7 78.3c-.9.7-1.7 1.2-2.5 1.5s-1.6.4-2.5.4c-1.5 0-2.6-.4-3.4-1.1s-1.2-1.7-1.2-2.8c0-.7.2-1.3.5-1.8.3-.6.7-1 1.2-1.3s1-.6 1.7-.8c.5-.1 1.1-.2 2-.3 1.9-.2 3.2-.5 4.1-.8 0-.3 0-.5 0-.6 0-.9-.2-1.6-.7-2-.6-.5-1.5-.8-2.6-.8s-1.9.2-2.4.6-.9 1.1-1.1 2l-2.3-.3c.2-1 .5-1.7 1-2.3s1.1-1.1 2-1.4 1.9-.5 3.1-.5 2.1.1 2.8.4 1.3.6 1.6 1 .6.9.7 1.6c.1.4.1 1.1.1 2.1v3.1c0 2.1 0 3.5.1 4.1s.3 1.1.6 1.6h-2.4c-.2-.4-.3-1-.4-1.6zm-.2-5.2c-.8.3-2.1.6-3.8.9-.9.1-1.6.3-2 .5s-.7.4-.9.7-.3.7-.3 1.1c0 .6.2 1.1.7 1.5s1.1.6 2 .6 1.7-.2 2.4-.6 1.2-.9 1.5-1.6c.2-.5.4-1.3.4-2.3z"/><path d="m222.4 77.9.3 2c-.6.1-1.2.2-1.7.2-.8 0-1.5-.1-1.9-.4-.5-.3-.8-.6-1-1s-.3-1.3-.3-2.7v-7.8h-1.7v-1.8h1.7v-3.4l2.3-1.4v4.8h2.3v1.8h-2.3v8c0 .7 0 1.1.1 1.3s.2.3.4.4.4.2.8.2c.3-.1.6-.2 1-.2z"/><path d="m225.7 63.8v-2.7h2.3v2.7zm0 16.1v-13.6h2.3v13.6z"/><path d="m231.6 73.1c0-2.5.7-4.4 2.1-5.6 1.2-1 2.6-1.5 4.3-1.5 1.9 0 3.4.6 4.6 1.8s1.8 2.9 1.8 5.1c0 1.8-.3 3.1-.8 4.1s-1.3 1.8-2.3 2.3c-1 .6-2.1.8-3.3.8-1.9 0-3.4-.6-4.6-1.8-1.2-1.1-1.8-2.9-1.8-5.2zm2.3 0c0 1.7.4 3 1.1 3.9.8.9 1.7 1.3 2.9 1.3 1.1 0 2.1-.4 2.9-1.3s1.1-2.2 1.1-4c0-1.7-.4-3-1.1-3.8-.8-.9-1.7-1.3-2.8-1.3-1.2 0-2.1.4-2.9 1.3s-1.2 2.2-1.2 3.9z"/><path d="m248 79.9v-13.6h2.1v1.9c1-1.5 2.4-2.2 4.3-2.2.8 0 1.6.1 2.3.4s1.2.7 1.5 1.2.6 1 .7 1.7c.1.4.1 1.2.1 2.2v8.4h-2.3v-8.3c0-.9-.1-1.6-.3-2.1s-.5-.8-1-1.1-1-.4-1.6-.4c-1 0-1.8.3-2.5.9s-1.1 1.8-1.1 3.5v7.4z"/><path d="m272.8 75.6 2.4.3c-.4 1.4-1.1 2.5-2.1 3.2-1 .8-2.3 1.2-3.9 1.2-2 0-3.6-.6-4.7-1.8-1.2-1.2-1.7-2.9-1.7-5.2s.6-4.1 1.8-5.3c1.2-1.3 2.7-1.9 4.6-1.9 1.8 0 3.3.6 4.5 1.9 1.2 1.2 1.7 3 1.7 5.2v.6h-10.1c.1 1.5.5 2.6 1.3 3.4s1.7 1.2 2.8 1.2c.8 0 1.6-.2 2.2-.7.4-.5.9-1.2 1.2-2.1zm-7.5-3.8h7.6c-.1-1.1-.4-2-.9-2.6-.7-.9-1.7-1.3-2.9-1.3-1.1 0-1.9.4-2.7 1.1-.7.7-1.1 1.6-1.1 2.8z"/><path d="m279.1 79.9v-13.6h2.1v1.9c1-1.5 2.4-2.2 4.3-2.2.8 0 1.6.1 2.3.4s1.2.7 1.5 1.2.6 1 .7 1.7c.1.4.1 1.2.1 2.2v8.4h-2.3v-8.3c0-.9-.1-1.6-.3-2.1s-.5-.8-1-1.1-1-.4-1.6-.4c-1 0-1.8.3-2.5.9s-1.1 1.8-1.1 3.5v7.4z"/><path d="m302.8 79.9v-13.6h2.1v2.1c.5-1 1-1.6 1.5-1.9.4-.3.9-.5 1.5-.5.8 0 1.6.2 2.4.7l-.8 2.1c-.6-.3-1.1-.5-1.7-.5-.5 0-1 .2-1.4.5s-.7.7-.9 1.3c-.3.8-.4 1.7-.4 2.7v7.1z"/><path d="m321.5 79.9v-2c-1.1 1.5-2.5 2.3-4.3 2.3-.8 0-1.6-.2-2.2-.5-.7-.3-1.2-.7-1.5-1.2s-.6-1-.7-1.7c-.1-.5-.1-1.2-.1-2.2v-8.4h2.3v7.5c0 1.2 0 2 .1 2.4.1.6.5 1.1.9 1.4.5.3 1 .5 1.7.5s1.3-.2 1.9-.5c.6-.4 1-.8 1.3-1.4s.4-1.5.4-2.7v-7.3h2.3v13.6h-2.1z"/><path d="m328.1 79.9v-13.6h2.1v1.9c1-1.5 2.4-2.2 4.3-2.2.8 0 1.6.1 2.3.4s1.2.7 1.5 1.2.6 1 .7 1.7c.1.4.1 1.2.1 2.2v8.4h-2.3v-8.3c0-.9-.1-1.6-.3-2.1s-.5-.8-1-1.1-1-.4-1.6-.4c-1 0-1.8.3-2.5.9s-1.1 1.8-1.1 3.5v7.4z"/><path d="m352.5 79.9v-1.7c-.9 1.3-2.1 2-3.8 2-1.1 0-2.1-.3-3-.9s-1.6-1.4-2.1-2.5-.7-2.3-.7-3.7.2-2.6.7-3.7 1.1-2 2-2.5c.9-.6 1.9-.9 3-.9.8 0 1.5.2 2.2.5.6.3 1.2.8 1.6 1.4v-6.7h2.3v18.8zm-7.3-6.8c0 1.7.4 3 1.1 3.9s1.6 1.3 2.6 1.3 1.9-.4 2.6-1.2 1.1-2.1 1.1-3.8c0-1.9-.4-3.2-1.1-4.1s-1.6-1.3-2.6-1.3-1.9.4-2.6 1.3c-.8.8-1.1 2.1-1.1 3.9z"/><path d="m376.3 79.9v-2c-1.1 1.5-2.5 2.3-4.3 2.3-.8 0-1.6-.2-2.2-.5-.7-.3-1.2-.7-1.5-1.2s-.6-1-.7-1.7c-.1-.5-.1-1.2-.1-2.2v-8.4h2.3v7.5c0 1.2 0 2 .1 2.4.1.6.5 1.1.9 1.4.5.3 1 .5 1.7.5s1.3-.2 1.9-.5c.6-.4 1-.8 1.3-1.4s.4-1.5.4-2.7v-7.3h2.3v13.6h-2.1z"/><path d="m383 79.9v-13.6h2.1v1.9c.4-.7 1-1.2 1.7-1.6s1.5-.6 2.4-.6c1 0 1.8.2 2.5.6.6.4 1.1 1 1.4 1.8 1.1-1.6 2.5-2.4 4.2-2.4 1.3 0 2.4.4 3.1 1.1s1.1 1.9 1.1 3.5v9.3h-2.3v-8.6c0-.9-.1-1.6-.2-2s-.4-.7-.8-1c-.4-.2-.9-.4-1.4-.4-1 0-1.7.3-2.4 1-.6.6-.9 1.7-.9 3.1v7.9h-2.3v-8.8c0-1-.2-1.8-.6-2.3s-1-.8-1.8-.8c-.6 0-1.2.2-1.8.5-.5.3-.9.8-1.2 1.5-.2.7-.4 1.6-.4 2.8v7.1z"/><path d="m404.8 75.9 2.3-.4c.1.9.5 1.6 1.1 2.1s1.4.7 2.4.7c1.1 0 1.8-.2 2.4-.6.5-.4.8-.9.8-1.5 0-.5-.2-.9-.7-1.2-.3-.2-1.1-.5-2.4-.8-1.7-.4-2.9-.8-3.5-1.1-.7-.3-1.1-.7-1.5-1.3-.3-.6-.5-1.2-.5-1.8s.1-1.2.4-1.7.7-.9 1.1-1.3c.4-.3.8-.5 1.5-.7.6-.2 1.3-.3 2-.3 1.1 0 2 .2 2.8.5s1.4.7 1.8 1.2.6 1.2.8 2.1l-2.3.3c-.1-.7-.4-1.2-.9-1.6s-1.2-.6-2.1-.6c-1.1 0-1.8.2-2.3.5-.5.4-.7.8-.7 1.2 0 .3.1.6.3.8s.5.5.9.6c.2.1.9.3 2 .6 1.6.4 2.8.8 3.4 1.1s1.1.7 1.5 1.2.6 1.2.6 2-.2 1.5-.7 2.2c-.4.7-1.1 1.2-1.9 1.6s-1.8.6-2.9.6c-1.8 0-3.1-.4-4-1.1-.8-.8-1.4-1.9-1.7-3.3z"/><path d="m428.5 79.9v-18.7h2.5v7.7h9.7v-7.7h2.5v18.8h-2.5v-8.9h-9.7v8.9z"/><path d="m447.1 73.1c0-2.5.7-4.4 2.1-5.6 1.2-1 2.6-1.5 4.3-1.5 1.9 0 3.4.6 4.6 1.8s1.8 2.9 1.8 5.1c0 1.8-.3 3.1-.8 4.1s-1.3 1.8-2.3 2.3c-1 .6-2.1.8-3.3.8-1.9 0-3.4-.6-4.6-1.8-1.2-1.1-1.8-2.9-1.8-5.2zm2.4 0c0 1.7.4 3 1.1 3.9.8.9 1.7 1.3 2.9 1.3 1.1 0 2.1-.4 2.9-1.3s1.1-2.2 1.1-4c0-1.7-.4-3-1.1-3.8-.8-.9-1.7-1.3-2.8-1.3-1.2 0-2.1.4-2.9 1.3s-1.2 2.2-1.2 3.9zm.4-9.4v-2.7h2.4v2.6h-2.4zm4.8 0v-2.7h2.4v2.6h-2.4z"/><path d="m463.5 79.9v-13.6h2.1v2.1c.5-1 1-1.6 1.5-1.9.4-.3.9-.5 1.5-.5.8 0 1.6.2 2.4.7l-.8 2.1c-.6-.3-1.1-.5-1.7-.5-.5 0-1 .2-1.4.5s-.7.7-.9 1.3c-.3.8-.4 1.7-.4 2.7v7.1z"/><path d="m482.5 75.6 2.4.3c-.4 1.4-1.1 2.5-2.1 3.2-1 .8-2.3 1.2-3.9 1.2-2 0-3.6-.6-4.7-1.8-1.2-1.2-1.7-2.9-1.7-5.2s.6-4.1 1.8-5.3c1.2-1.3 2.7-1.9 4.6-1.9 1.8 0 3.3.6 4.5 1.9 1.2 1.2 1.7 3 1.7 5.2v.6h-10.3c.1 1.5.5 2.6 1.3 3.4s1.7 1.2 2.8 1.2c.8 0 1.6-.2 2.2-.7s1.1-1.2 1.4-2.1zm-7.5-3.8h7.6c-.1-1.1-.4-2-.9-2.6-.7-.9-1.7-1.3-2.9-1.3-1.1 0-1.9.4-2.7 1.1-.7.7-1.1 1.6-1.1 2.8z"/><path d="m488.8 79.9v-13.6h2.1v1.9c1-1.5 2.4-2.2 4.3-2.2.8 0 1.6.1 2.3.4s1.2.7 1.5 1.2.6 1 .7 1.7c.1.4.1 1.2.1 2.2v8.4h-2.3v-8.3c0-.9-.1-1.6-.3-2.1s-.5-.8-1-1.1-1-.4-1.6-.4c-1 0-1.8.3-2.5.9s-1.1 1.8-1.1 3.5v7.4z"/><path d="m48.6.2c-26.6 0-48.2 21.7-48.2 48.3s21.6 48.3 48.2 48.3 48.3-21.7 48.3-48.3-21.6-48.3-48.3-48.3zm0 91.2c-23.6 0-42.9-19.2-42.9-42.9s19.3-42.9 42.9-42.9 42.9 19.3 42.9 42.9-19.2 42.9-42.9 42.9z"/><path d="m33.7 57.5c.9 0 1.7.8 1.7 1.7v10c0 3.2 2.6 5.8 5.8 5.8s5.8-2.6 5.8-5.8v-13.4c0-.9.8-1.7 1.7-1.7s1.7.8 1.7 1.7v17c0 3.2 2.6 5.8 5.8 5.8s5.8-2.6 5.8-5.8v-5.8-16c0-.9.7-1.8 1.5-1.8h7.2 3.9c1.1 0 2.1-.9 2.1-2.1s-.9-2.1-2-2.1h-3.9s-6-.2-7.6 0c-3 .3-5.3 2.9-5.3 6v16.1 5.6c0 .9-.8 1.7-1.7 1.7s-1.7-.8-1.7-1.7v-17c0-3.2-2.6-5.8-5.8-5.8s-5.8 2.6-5.8 5.8v13.4c0 .9-.8 1.7-1.7 1.7s-1.7-.8-1.7-1.7v-10c0-3.2-2.6-5.8-5.8-5.8s-14.3 0-14.3 0c-1.1 0-2.1.9-2.1 2.1s.9 2.1 2.1 2.1z"/><path d="m63.6 39.5c-.9 0-1.7-.8-1.7-1.7v-4.9c0-3.2-2.6-5.8-5.8-5.8s-5.8 2.6-5.8 5.8v8.3c0 .9-.8 1.7-1.7 1.7s-1.7-.8-1.7-1.7v-17c0-3.2-2.6-5.8-5.8-5.8s-5.8 2.6-5.8 5.8v5.8 15.1c0 .9-.7 1.8-1.5 1.8-.5 0-7.2 0-7.2 0h-3.9c-1.1 0-2.1.9-2.1 2.1s.9 2.1 2.1 2.1h3.9s6 .2 7.6 0c3-.3 5.3-2.9 5.3-6v-15.2-5.6c0-.9.8-1.7 1.7-1.7s1.7.8 1.7 1.7v17c0 3.2 2.6 5.8 5.8 5.8s5.8-2.6 5.8-5.8v-8.3c0-.9.8-1.7 1.7-1.7s1.7.8 1.7 1.7v4.9c0 3.2 2.6 5.8 5.8 5.8h14.3c1.1 0 2.1-.9 2.1-2.1s-.9-2.1-2.1-2.1c-.1-.1-13.4 0-14.4 0z"/></g></svg>